<?xml version="1.0" encoding="UTF-8"?>
<svg 
  fill="white" 
  height="30" 
  width="28" 
  version="1.1" 
  id="Layer_1" 
  xmlns="http://www.w3.org/2000/svg" 
  xmlns:xlink="http://www.w3.org/1999/xlink" 
  viewBox="0 0 512 512" 
  xml:space="preserve">
  <g>
    <g>
      <path d="M427.875,325.477v-0.001L512,268.824h-72.974l10.356-12.3l-96.272-114.352L462.189,12.606H139.016L29.937,142.171
        l96.272,114.352L17.131,386.088h66.995L0,442.741h84.126L0,499.394h337.87L512,382.13h-84.126L512,325.477H427.875z
        M153.173,43.031h243.632l-70.658,83.928H82.516L153.173,43.031z M82.516,157.383h243.631l70.658,83.928H153.174L82.516,157.383z
        M82.515,355.664l70.658-83.928h243.632l-23.163,27.513l-47.494,56.416H129.304H82.515z M412.355,412.553l-83.774,56.416H99.645
        l38.948-26.229H337.87l44.826-30.188L412.355,412.553L412.355,412.553z M373.408,382.129l-44.826,30.188H129.304H99.645
        l38.948-26.229H337.87l44.827-30.188h29.659L373.408,382.129z" fill="white"/>
    </g>
  </g>
</svg>