<svg width="25" height="26" viewBox="0 0 25 26" fill="none" xmlns="http://www.w3.org/2000/svg">
<path d="M0.5 1V0.5C0.223858 0.5 0 0.723858 0 1H0.5ZM9.83333 1H10.3333C10.3333 0.723858 10.1095 0.5 9.83333 0.5V1ZM9.83333 10.3333V10.8333C10.1095 10.8333 10.3333 10.6095 10.3333 10.3333H9.83333ZM0.5 10.3333H0C0 10.6095 0.223858 10.8333 0.5 10.8333L0.5 10.3333ZM15.1667 1V0.5C14.8905 0.5 14.6667 0.723858 14.6667 1H15.1667ZM24.5 1H25C25 0.723858 24.7761 0.5 24.5 0.5V1ZM24.5 10.3333V10.8333C24.7761 10.8333 25 10.6095 25 10.3333H24.5ZM15.1667 10.3333H14.6667C14.6667 10.6095 14.8905 10.8333 15.1667 10.8333V10.3333ZM15.1667 15.6667V15.1667C14.8905 15.1667 14.6667 15.3905 14.6667 15.6667H15.1667ZM24.5 15.6667H25C25 15.3905 24.7761 15.1667 24.5 15.1667V15.6667ZM24.5 25V25.5C24.7761 25.5 25 25.2761 25 25H24.5ZM15.1667 25H14.6667C14.6667 25.2761 14.8905 25.5 15.1667 25.5V25ZM0.5 15.6667V15.1667C0.223858 15.1667 0 15.3905 0 15.6667H0.5ZM9.83333 15.6667H10.3333C10.3333 15.3905 10.1095 15.1667 9.83333 15.1667V15.6667ZM9.83333 25V25.5C10.1095 25.5 10.3333 25.2761 10.3333 25H9.83333ZM0.5 25H0C0 25.2761 0.223858 25.5 0.5 25.5L0.5 25ZM0.5 1.5H9.83333V0.5H0.5V1.5ZM9.33333 1V10.3333H10.3333V1H9.33333ZM9.83333 9.83333H0.5V10.8333H9.83333V9.83333ZM1 10.3333V1H0V10.3333H1ZM15.1667 1.5H24.5V0.5H15.1667V1.5ZM24 1V10.3333H25V1H24ZM24.5 9.83333H15.1667V10.8333H24.5V9.83333ZM15.6667 10.3333V1H14.6667V10.3333H15.6667ZM15.1667 16.1667H24.5V15.1667H15.1667V16.1667ZM24 15.6667V25H25V15.6667H24ZM24.5 24.5H15.1667V25.5H24.5V24.5ZM15.6667 25V15.6667H14.6667V25H15.6667ZM0.5 16.1667H9.83333V15.1667H0.5V16.1667ZM9.33333 15.6667V25H10.3333V15.6667H9.33333ZM9.83333 24.5H0.5V25.5H9.83333V24.5ZM1 25V15.6667H0V25H1Z" fill="white"/>
</svg>
