<svg width="32" height="32" viewBox="0 0 32 32" fill="none" xmlns="http://www.w3.org/2000/svg">
<path d="M16.5 28C23.1274 28 28.5 22.6274 28.5 16C28.5 9.37258 23.1274 4 16.5 4C9.87258 4 4.5 9.37258 4.5 16C4.5 22.6274 9.87258 28 16.5 28Z" stroke="white" stroke-linecap="round" stroke-linejoin="round"/>
<path d="M27.2749 21.2997L20.4874 17.1247C20.3705 17.0496 20.2379 17.0026 20.0999 16.9872L17.2374 16.5997C17.0238 16.5691 16.8061 16.6101 16.6183 16.7164C16.4306 16.8227 16.2834 16.9883 16.1999 17.1872L14.4874 21.0247C14.4068 21.2032 14.3805 21.4014 14.4116 21.5948C14.4427 21.7881 14.5299 21.968 14.6624 22.1122L17.0124 24.6497C17.1186 24.7665 17.1964 24.9062 17.2398 25.058C17.2831 25.2098 17.2909 25.3695 17.2624 25.5247L16.7749 27.9997" stroke="white" stroke-linecap="round" stroke-linejoin="round"/>
<path d="M8.62522 6.9502L7.50022 9.6002C7.40222 9.83546 7.39775 10.0993 7.48772 10.3377L8.92522 14.1627C8.9814 14.3221 9.07756 14.4645 9.2045 14.5761C9.33144 14.6877 9.48491 14.7649 9.65022 14.8002L12.3252 15.3752C12.4737 15.4052 12.6131 15.4694 12.7325 15.5627C12.8518 15.656 12.9478 15.7759 13.0127 15.9127L13.4877 16.9002C13.5721 17.0672 13.7006 17.2078 13.8592 17.307C14.0179 17.4062 14.2007 17.46 14.3877 17.4627H16.0752" stroke="white" stroke-linecap="round" stroke-linejoin="round"/>
<path d="M19.5627 4.3877L20.7252 6.4877C20.8325 6.68513 20.8711 6.91265 20.8349 7.13444C20.7987 7.35622 20.6897 7.55965 20.5252 7.7127L17.1627 10.7502C17.1064 10.8039 17.0434 10.8502 16.9752 10.8877L15.4377 11.7377C15.2911 11.8155 15.1286 11.8582 14.9627 11.8627H12.2877C12.0906 11.8637 11.8981 11.9222 11.7338 12.031C11.5695 12.1398 11.4405 12.2942 11.3627 12.4752L10.3252 14.9377" stroke="white" stroke-linecap="round" stroke-linejoin="round"/>
</svg>
