<svg width="28" height="26" viewBox="0 0 28 26" fill="none" xmlns="http://www.w3.org/2000/svg">
<path d="M14.0005 19C17.3142 19 20.0005 16.3137 20.0005 13C20.0005 9.68629 17.3142 7 14.0005 7C10.6868 7 8.00049 9.68629 8.00049 13C8.00049 16.3137 10.6868 19 14.0005 19Z" stroke="white" stroke-linecap="round" stroke-linejoin="round"/>
<path d="M22.675 7.0873C22.976 7.51814 23.2394 7.97398 23.4625 8.4498L26.7 10.2498C27.1043 12.0604 27.1086 13.9374 26.7125 15.7498L23.4625 17.5498C23.2394 18.0256 22.976 18.4815 22.675 18.9123L22.7375 22.6248C21.3655 23.8751 19.7416 24.8171 17.975 25.3873L14.7875 23.4748C14.2632 23.5123 13.7369 23.5123 13.2125 23.4748L10.0375 25.3748C8.26542 24.8149 6.63615 23.8766 5.26254 22.6248L5.32504 18.9248C5.02662 18.488 4.7633 18.0282 4.53754 17.5498L1.30004 15.7498C0.895785 13.9392 0.891519 12.0622 1.28754 10.2498L4.53754 8.4498C4.76064 7.97398 5.0241 7.51814 5.32504 7.0873L5.26254 3.3748C6.6346 2.12451 8.25851 1.18256 10.025 0.612305L13.2125 2.5248C13.7369 2.4873 14.2632 2.4873 14.7875 2.5248L17.9625 0.624805C19.7347 1.18467 21.3639 2.123 22.7375 3.3748L22.675 7.0873Z" stroke="white" stroke-linecap="round" stroke-linejoin="round"/>
</svg>
