<svg width="32" height="32" viewBox="0 0 32 32" fill="none" xmlns="http://www.w3.org/2000/svg">
<path d="M12.5 18C16.0899 18 19 15.0899 19 11.5C19 7.91015 16.0899 5 12.5 5C8.91015 5 6 7.91015 6 11.5C6 15.0899 8.91015 18 12.5 18Z" stroke="white" stroke-miterlimit="10"/>
<path d="M3 23C4.16398 21.4343 5.61767 20.1752 7.2589 19.3114C8.90014 18.4476 10.6891 18 12.5 18C14.3109 18 16.0999 18.4476 17.7411 19.3114C19.3823 20.1752 20.836 21.4343 22 23" stroke="white" stroke-linecap="round" stroke-linejoin="round"/>
<path fill-rule="evenodd" clip-rule="evenodd" d="M23.5081 11.0385C23.4443 10.9984 23.3659 10.9891 23.2945 11.0133C22.6481 11.2324 22.0548 11.594 21.5542 12.0729C21.5039 12.1211 21.476 12.188 21.4771 12.2576L21.4975 13.53C21.4179 13.6555 21.346 13.786 21.2822 13.9208L20.2261 14.5349C20.1648 14.5706 20.1215 14.6306 20.107 14.7001C19.9629 15.3925 19.9645 16.1094 20.1116 16.801C20.1262 16.8699 20.1692 16.9294 20.23 16.9649L21.2822 17.5792C21.3466 17.7148 21.4184 17.8464 21.4975 17.9734L21.4771 19.2425C21.476 19.3121 21.5039 19.379 21.5542 19.4271C22.0557 19.907 22.6514 20.2675 23.3004 20.4828C23.3713 20.5063 23.4489 20.4969 23.5121 20.4572L24.5422 19.8099C24.6807 19.8174 24.8193 19.8174 24.9578 19.81L25.9921 20.4616C26.0558 20.5017 26.1343 20.511 26.2056 20.4868C26.852 20.2677 27.4453 19.9061 27.9459 19.4271C27.9962 19.379 28.0242 19.3121 28.0231 19.2425L28.0027 17.9701C28.0822 17.8446 28.1541 17.7141 28.218 17.5793L29.2741 16.9651C29.3354 16.9295 29.3787 16.8694 29.3932 16.8C29.5372 16.1076 29.5357 15.3907 29.3886 14.699C29.374 14.6302 29.3309 14.5706 29.2701 14.5351L28.2181 13.921C28.1542 13.7861 28.0823 13.6555 28.0027 13.53L28.0231 12.2576C28.0242 12.188 27.9962 12.1211 27.946 12.0729C27.4444 11.593 26.8487 11.2326 26.1998 11.0173C26.1289 10.9938 26.0512 11.0032 25.988 11.0429L24.9579 11.6901C24.8195 11.6827 24.6808 11.6827 24.5424 11.6901L23.5081 11.0385ZM21.9986 13.5982L21.9788 12.3606C22.3808 11.9947 22.844 11.7119 23.3441 11.5262L24.3444 12.1563C24.3897 12.1849 24.4429 12.1981 24.4963 12.1941C24.6653 12.1814 24.8349 12.1814 25.0038 12.1941C25.0571 12.1981 25.1103 12.1849 25.1556 12.1565L26.1524 11.5301C26.6541 11.7128 27.1188 11.9944 27.5214 12.3606L27.5015 13.5982C27.5007 13.6488 27.5153 13.6985 27.5433 13.7407C27.6397 13.8855 27.7241 14.0389 27.7957 14.1991C27.817 14.2468 27.8528 14.2867 27.8979 14.3131L28.921 14.9103C29.0251 15.4647 29.0264 16.035 28.9248 16.5899L27.8983 17.1868C27.853 17.2132 27.8171 17.2531 27.7957 17.301C27.7241 17.4612 27.6397 17.6146 27.5433 17.7594C27.5153 17.8016 27.5007 17.8512 27.5015 17.9019L27.5214 19.1395C27.1194 19.5054 26.6561 19.7882 26.156 19.9739L25.1558 19.3438C25.1105 19.3152 25.0572 19.302 25.0038 19.306C24.8349 19.3187 24.6653 19.3187 24.4963 19.306C24.443 19.302 24.3899 19.3152 24.3446 19.3436L23.3478 19.9699C22.8461 19.7873 22.3814 19.5057 21.9788 19.1395L21.9986 17.9064C21.9994 17.8567 21.9854 17.8078 21.9582 17.7661C21.862 17.6182 21.7771 17.4626 21.7042 17.3004C21.6829 17.2529 21.6472 17.2133 21.6022 17.187L20.5791 16.5898C20.475 16.0354 20.4737 15.4651 20.5753 14.9102L21.6019 14.3133C21.6472 14.2869 21.6831 14.247 21.7045 14.1991C21.776 14.0389 21.8605 13.8855 21.9568 13.7407C21.9849 13.6985 21.9995 13.6488 21.9986 13.5982ZM22.5001 15.75C22.5001 14.5074 23.5074 13.5 24.7501 13.5C25.9927 13.5 27.0001 14.5074 27.0001 15.75C27.0001 16.9927 25.9927 18 24.7501 18C23.5074 18 22.5001 16.9927 22.5001 15.75ZM24.7501 13C23.2313 13 22.0001 14.2313 22.0001 15.75C22.0001 17.2688 23.2313 18.5 24.7501 18.5C26.2689 18.5 27.5001 17.2688 27.5001 15.75C27.5001 14.2313 26.2689 13 24.7501 13Z" fill="white"/>
</svg>
