<svg width="60" height="60" viewBox="0 0 60 60" fill="none" xmlns="http://www.w3.org/2000/svg">
<g filter="url(#filter0_dd_470_73905)">
<rect x="8" y="4" width="44" height="44" rx="22" fill="#F2F4F7" shape-rendering="crispEdges"/>
<path d="M37.3333 34.25V32.4167C37.3333 31.4442 36.947 30.5116 36.2594 29.8239C35.5717 29.1363 34.6391 28.75 33.6666 28.75H26.3333C25.3608 28.75 24.4282 29.1363 23.7406 29.8239C23.0529 30.5116 22.6666 31.4442 22.6666 32.4167V34.25M33.6666 21.4167C33.6666 23.4417 32.025 25.0833 30 25.0833C27.9749 25.0833 26.3333 23.4417 26.3333 21.4167C26.3333 19.3916 27.9749 17.75 30 17.75C32.025 17.75 33.6666 19.3916 33.6666 21.4167Z" stroke="#080E2C" stroke-width="2" stroke-linecap="round" stroke-linejoin="round"/>
</g>
<defs>
<filter id="filter0_dd_470_73905" x="0" y="0" width="60" height="60" filterUnits="userSpaceOnUse" color-interpolation-filters="sRGB">
<feFlood flood-opacity="0" result="BackgroundImageFix"/>
<feColorMatrix in="SourceAlpha" type="matrix" values="0 0 0 0 0 0 0 0 0 0 0 0 0 0 0 0 0 0 127 0" result="hardAlpha"/>
<feOffset dy="2"/>
<feGaussianBlur stdDeviation="2"/>
<feComposite in2="hardAlpha" operator="out"/>
<feColorMatrix type="matrix" values="0 0 0 0 0.0627451 0 0 0 0 0.0941176 0 0 0 0 0.156863 0 0 0 0.06 0"/>
<feBlend mode="normal" in2="BackgroundImageFix" result="effect1_dropShadow_470_73905"/>
<feColorMatrix in="SourceAlpha" type="matrix" values="0 0 0 0 0 0 0 0 0 0 0 0 0 0 0 0 0 0 127 0" result="hardAlpha"/>
<feOffset dy="4"/>
<feGaussianBlur stdDeviation="4"/>
<feComposite in2="hardAlpha" operator="out"/>
<feColorMatrix type="matrix" values="0 0 0 0 0.0627451 0 0 0 0 0.0941176 0 0 0 0 0.156863 0 0 0 0.1 0"/>
<feBlend mode="normal" in2="effect1_dropShadow_470_73905" result="effect2_dropShadow_470_73905"/>
<feBlend mode="normal" in="SourceGraphic" in2="effect2_dropShadow_470_73905" result="shape"/>
</filter>
</defs>
</svg>
