<svg width="56" height="56" viewBox="0 0 56 56" fill="none" xmlns="http://www.w3.org/2000/svg">
<path d="M4 51C4 51.5523 4.44772 52 5 52H51C51.5523 52 52 51.5523 52 51V5C52 4.44772 51.5523 4 51 4H5C4.44771 4 4 4.44772 4 5V51Z" fill="#FEE4E2"/>
<path d="M39 34L29.5 24.5L24.5 29.5L17 22M39 34H33M39 34V28" stroke="#D92D20" stroke-width="2" stroke-linecap="round" stroke-linejoin="round"/>
<path d="M4 51C4 51.5523 4.44772 52 5 52H51C51.5523 52 52 51.5523 52 51V5C52 4.44772 51.5523 4 51 4H5C4.44771 4 4 4.44772 4 5V51Z" stroke="#FEF3F2" stroke-width="8"/>
</svg>
