<svg width="22" height="22" viewBox="0 0 22 22" fill="none" xmlns="http://www.w3.org/2000/svg">
    <path d="M11 15.844c2.548 0 4.613-2.169 4.613-4.844 0-2.675-2.065-4.843-4.613-4.843-2.547 0-4.613 2.168-4.613 4.843S8.453 15.844 11 15.844z" stroke="#254164" stroke-width="1.5" stroke-linecap="round" stroke-linejoin="round"/>
    <path d="M17.67 6.227c.231.348.434.716.605 1.1l2.49 1.453c.31 1.462.313 2.977.009 4.44l-2.499 1.453a7.531 7.531 0 0 1-.605 1.1l.048 2.997A9.896 9.896 0 0 1 14.056 21l-2.45-1.544c-.404.03-.808.03-1.211 0L7.953 20.99a9.758 9.758 0 0 1-3.67-2.22l.047-2.987a8.193 8.193 0 0 1-.605-1.11l-2.49-1.453a10.795 10.795 0 0 1-.01-4.44l2.5-1.453c.171-.384.374-.752.605-1.1L4.282 3.23A9.895 9.895 0 0 1 7.944 1l2.45 1.544c.404-.03.808-.03 1.211 0l2.442-1.534a9.759 9.759 0 0 1 3.67 2.22l-.047 2.997z" stroke="#254164" stroke-width="1.5" stroke-linecap="round" stroke-linejoin="round"/>
</svg>
