<svg width="18" height="18" viewBox="0 0 18 18" fill="none" xmlns="http://www.w3.org/2000/svg">
<path d="M16.6121 8.43328L2.22016 1.09927C2.09901 1.037 1.96011 1.00279 1.8178 1.00016C1.67548 0.99754 1.53491 1.0266 1.41057 1.08435C1.28623 1.1421 1.18263 1.22645 1.11046 1.32869C1.03829 1.43094 1.00016 1.54737 1 1.66599V16.334C1.00016 16.4526 1.03829 16.5691 1.11046 16.6713C1.18263 16.7735 1.28623 16.8579 1.41057 16.9156C1.53491 16.9734 1.67548 17.0025 1.8178 16.9998C1.96011 16.9972 2.09901 16.963 2.22016 16.9007L16.6121 9.56672C16.7302 9.50849 16.8282 9.4256 16.8962 9.32622C16.9642 9.22684 17 9.11441 17 9C17 8.88559 16.9642 8.77316 16.8962 8.67378C16.8282 8.57441 16.7302 8.49152 16.6121 8.43328Z" fill="white" stroke="white" stroke-width="2" stroke-linecap="round" stroke-linejoin="round"/>
</svg>
