<svg width="10" height="16" viewBox="0 0 10 16" fill="none" xmlns="http://www.w3.org/2000/svg">
<path d="M6 0.666016C6 0.113731 5.55228 -0.333984 5 -0.333984C4.44772 -0.333984 4 0.113731 4 0.666016H6ZM4 15.3327C4 15.885 4.44772 16.3327 5 16.3327C5.55228 16.3327 6 15.885 6 15.3327H4ZM8.33333 4.33268C8.88562 4.33268 9.33333 3.88497 9.33333 3.33268C9.33333 2.7804 8.88562 2.33268 8.33333 2.33268V4.33268ZM1 5.66601H0H1ZM3.33333 7.99935V8.99935V7.99935ZM6.66667 7.99935V6.99935V7.99935ZM6.66667 12.666V13.666V12.666ZM1 11.666C0.447715 11.666 0 12.1137 0 12.666C0 13.2183 0.447715 13.666 1 13.666V11.666ZM4 0.666016V15.3327H6V0.666016H4ZM8.33333 2.33268H3.33333V4.33268H8.33333V2.33268ZM3.33333 2.33268C2.44928 2.33268 1.60143 2.68387 0.976311 3.30899L2.39052 4.72321C2.64057 4.47316 2.97971 4.33268 3.33333 4.33268V2.33268ZM0.976311 3.30899C0.35119 3.93411 0 4.78196 0 5.66601H2C2 5.31239 2.14048 4.97325 2.39052 4.72321L0.976311 3.30899ZM0 5.66601C0 6.55007 0.35119 7.39792 0.976311 8.02304L2.39052 6.60882C2.14048 6.35877 2 6.01964 2 5.66601H0ZM0.976311 8.02304C1.60143 8.64816 2.44928 8.99935 3.33333 8.99935V6.99935C2.97971 6.99935 2.64057 6.85887 2.39052 6.60882L0.976311 8.02304ZM3.33333 8.99935H6.66667V6.99935H3.33333V8.99935ZM6.66667 8.99935C7.02029 8.99935 7.35943 9.13982 7.60948 9.38987L9.02369 7.97566C8.39857 7.35054 7.55072 6.99935 6.66667 6.99935V8.99935ZM7.60948 9.38987C7.85952 9.63992 8 9.97906 8 10.3327H10C10 9.44863 9.64881 8.60078 9.02369 7.97566L7.60948 9.38987ZM8 10.3327C8 10.6863 7.85952 11.0254 7.60948 11.2755L9.02369 12.6897C9.64881 12.0646 10 11.2167 10 10.3327H8ZM7.60948 11.2755C7.35943 11.5255 7.02029 11.666 6.66667 11.666V13.666C7.55072 13.666 8.39857 13.3148 9.02369 12.6897L7.60948 11.2755ZM6.66667 11.666H1V13.666H6.66667V11.666Z" fill="white"/>
</svg>
