<svg width="16" height="14" viewBox="0 0 16 14" fill="none" xmlns="http://www.w3.org/2000/svg">
<path d="M15.3337 1.66704V5.66704M15.3337 5.66704H11.3337M15.3337 5.66704L12.2403 2.76038C11.5238 2.04352 10.6374 1.51985 9.66379 1.23823C8.69016 0.956603 7.66106 0.92621 6.67252 1.14988C5.68397 1.37355 4.76819 1.844 4.01064 2.51732C3.25308 3.19064 2.67844 4.0449 2.34033 5.00038M0.666992 12.3337V8.33371M0.666992 8.33371H4.66699M0.666992 8.33371L3.76033 11.2404C4.47682 11.9572 5.36324 12.4809 6.33686 12.7625C7.31049 13.0441 8.33959 13.0745 9.32813 12.8509C10.3167 12.6272 11.2325 12.1568 11.99 11.4834C12.7476 10.8101 13.3222 9.95585 13.6603 9.00038" stroke="white" stroke-width="2" stroke-linecap="round" stroke-linejoin="round"/>
</svg>
