<svg width="56" height="56" viewBox="0 0 56 56" fill="none" xmlns="http://www.w3.org/2000/svg">
<path d="M4 5C4 4.44771 4.44772 4 5 4H51C51.5523 4 52 4.44772 52 5V51C52 51.5523 51.5523 52 51 52H5C4.44771 52 4 51.5523 4 51V5Z" fill="#D1FADF"/>
<path d="M39 22L29.5 31.5L24.5 26.5L17 34M39 22H33M39 22V28" stroke="#039855" stroke-width="2" stroke-linecap="round" stroke-linejoin="round"/>
<path d="M4 5C4 4.44771 4.44772 4 5 4H51C51.5523 4 52 4.44772 52 5V51C52 51.5523 51.5523 52 51 52H5C4.44771 52 4 51.5523 4 51V5Z" stroke="#ECFDF3" stroke-width="8"/>
</svg>
